<svg xmlns="http://www.w3.org/2000/svg" xmlns:xlink="http://www.w3.org/1999/xlink" viewBox="0 0 1924 1520.56"><defs><style>.cls-1{fill:url(#linear-gradient);}.cls-2{fill:url(#linear-gradient-2);}.cls-3{fill:url(#linear-gradient-3);}.cls-14,.cls-19,.cls-4{fill:#fff;}.cls-5{fill:#006838;}.cls-6{fill:#013a1c;}.cls-7{fill:#1d8752;}.cls-8{fill:#c8934f;}.cls-9{fill:#efe0bb;opacity:0.4;}.cls-10{fill:#a86b35;}.cls-11{fill:#935628;}.cls-12{fill:#be1e2d;opacity:0.2;}.cls-13{fill:#3c2415;}.cls-13,.cls-15,.cls-16,.cls-17{stroke:#000;stroke-miterlimit:10;}.cls-13,.cls-17{stroke-width:3px;}.cls-14{opacity:0.15;}.cls-15,.cls-16,.cls-17{fill:none;}.cls-15{stroke-width:10px;}.cls-16{stroke-width:5px;}.cls-18{fill:#3b271e;}.cls-19{opacity:0.1;}</style><linearGradient id="linear-gradient" x1="1090.95" y1="260.66" x2="785.86" y2="1678.69" gradientUnits="userSpaceOnUse"><stop offset="0" stop-color="#f9ed32"/><stop offset="0.18" stop-color="#f9e530"/><stop offset="0.45" stop-color="#f8d02b"/><stop offset="0.79" stop-color="#f8ae23"/><stop offset="1" stop-color="#f7941d"/></linearGradient><linearGradient id="linear-gradient-2" x1="373.79" y1="106.36" x2="68.71" y2="1524.4" gradientUnits="userSpaceOnUse"><stop offset="0" stop-color="#f9ed32"/><stop offset="1" stop-color="#f7941d"/></linearGradient><linearGradient id="linear-gradient-3" x1="560.4" y1="146.51" x2="255.31" y2="1564.55" xlink:href="#linear-gradient-2"/></defs><g id="Layer_2" data-name="Layer 2"><g id="Layer_1-2" data-name="Layer 1"><g id="BG_Blob"><path class="cls-1" d="M1912.19,926.77c-34.07,154.61-132.77,288.67-259.51,385.19-1.85,1.42-3.72,2.82-5.59,4.22q-2.25,1.68-4.51,3.35a818.65,818.65,0,0,1-71.17,47q-2.49,1.47-5,2.91l-.5.29c-2.05,1.19-4.12,2.37-6.18,3.54q-2.28,1.29-4.57,2.57-11,6.14-22.15,12-5.91,3.1-11.87,6.1-5.54,2.79-11.1,5.5-19.14,9.35-38.67,17.81-7.32,3.18-14.7,6.25-5.57,2.31-11.14,4.55-13.36,5.37-26.88,10.36-6.21,2.3-12.45,4.51-5.61,2-11.26,3.94l-.08,0q-21.18,7.28-42.68,13.71-14.61,4.37-29.35,8.37c-109,29.63-222.88,44.21-335.91,49.52-91.66,4.31-184.66,2.5-275.95-8.81-66-8.17-131.19-21.31-194.28-40.7q-10.41-3.21-20.74-6.64-8.06-2.67-16-5.48h0q-39.5-13.89-77.69-31.37l-4.17-1.93-.73-.35c-1.48-.68-3-1.38-4.43-2.07q-14.83-7-29.44-14.66-17.29-9-34.15-19c-1.57-.92-3.13-1.86-4.69-2.8q-2.72-1.62-5.42-3.29C150.63,1278,19.21,1105.73,1.4,909.8c-6.32-69.54,7.48-150.35,66.86-187.09,56.76-35.12,129.47-15.69,195.65-7s150.32-6.51,169.48-70.45c9.45-31.51-.66-66.52,9.46-97.82,17.62-54.48,86.73-70,129.69-35.58,19.23,15.42,36.2,26,61,30.68,34.3,6.52,69.5,7.66,104.27,4.93,39.61-3.11,78.78-11.18,116.78-22.68,96.1-29.07,185-77.67,277.81-115.87,93.24-38.36,191.8-66.43,292.53-70.58s204.09,16.73,289.54,70.24C1881.5,513.14,1954.59,734.34,1912.19,926.77Z"/><path class="cls-2" d="M302.15,409.4c-45-22.22-104.1-5.4-134.77,34.35s-33.27,97.5-11,142.5,66.78,77,115.43,89.41c34.72,8.86,74.34,7.58,103-14,19.09-14.39,31.35-36.44,37.81-59.46,13-46.23,3.34-98.26-25.34-136.77S311.45,402.78,263.43,402Z"/><path class="cls-3" d="M462.9,426.89c15.61,16.28,39,25.27,61.32,21.93s42.59-19.61,49.16-41.19c7.28-23.88-2.84-50.93-21.39-67.64-11.74-10.58-26-16.85-41.12-21.09-9.31-2.62-19-4.76-28.35-1.07-25.32,10-42,38.5-39.68,65.09A73.52,73.52,0,0,0,462.9,426.89Z"/></g><g id="Shirt"><path class="cls-4" d="M733.84,919.11a193.37,193.37,0,0,0-17.77,26.25,104,104,0,0,0-5.76,12v0c-2.54,6.45-4,12.77-3.44,18.15a0,0,0,0,0,0,0l0,.31h-.06c-1.56.16-32,3.55-44,14.24l-55.51,43.3-69.62,16.69-15.49,8.13-9.44,5h0L490.42,1075l-36.14,34.52a2.34,2.34,0,0,0-.23.22.05.05,0,0,0,0,0l-3.23,3.08-.33.32-9.9,9.45-3.06,2.93-.42,1h0l-.62,1.41-2.6,5.95-.9,2.05-5.58,5.37-2.54,2.44L406.93,1161l-6.72,6.46-2.62,5.1-22.91,44.65-4.26,8.29-7.15,46.64,4.71,17.37,17.08,63,4.58,17.11,10.26,38.3.48,1.78-2.33,13.86-.73-.35c-1.48-.68-3-1.38-4.43-2.07q-14.83-7-29.44-14.66-17.29-9-34.15-19c-1.57-.92-3.13-1.86-4.69-2.8l2-95.66,12.65-81.78,24.52-54,31.81-49.1,64.17-42.1,101.33-52.47,28.88-23.32L635.61,956l58.14-25,28.67-12.77,10.17.79.79.06Z"/><path class="cls-4" d="M1647.79,1298.31l-.7,17.87q-2.25,1.68-4.51,3.35a818.65,818.65,0,0,1-71.17,47q-2.49,1.47-5,2.91l-.5.29,9.17-37.27,3.05-12.4,1.37-8.93,3.84-25,.21-1.36-.67-3.26-6.85-33.57-16.82-42.67,0,0-3.15-8s0,0,0-.06l-4-10.11-.17-5.82-.71-23.68-.68-1.08-7.94-12.62,0,0c-2.37-3.75-4.34-6.85-4.49-7s-1.48-1.33-3.72-3.28l0,0c-9.8-8.53-35.37-30.55-35.37-30.55l-55.24-26.67-59-28.51-8.83-2.64c-16.31-4.87-49.58-14.82-50.2-15-.29-.09-4.15-1.77-9-3.9l-.13,0c-8.73-3.83-20.58-9.06-20.58-9.06L1252,991.07l-9.55-2.84-31.35-9.31-.08-1.3-.45-6.77,0-.47v0l3.82-13.89a0,0,0,0,0,0,0l.21-.76v0l.76-2.77-.15-1.19,0-.34-2.61-20.68-7.15-10.73L1191.61,911l-1.55-1.45-1.87-1.74-17.11-16C1202.88,892.1,1252,928,1252,928l87.21,36.22,122.29,45.33s83,37.28,123.76,80.25,55.39,117.78,55.39,117.78Z"/><path class="cls-5" d="M1583.57,1289.8l-4.06,21.3-2.53,13.27-1.89,8.06-8.67,37-.5.29c-2.05,1.19-4.12,2.37-6.18,3.54q-2.28,1.29-4.57,2.57-11,6.14-22.15,12-5.91,3.1-11.87,6.1-5.54,2.79-11.1,5.5-19.14,9.35-38.67,17.81-7.32,3.18-14.7,6.25-5.57,2.31-11.14,4.55-13.36,5.37-26.88,10.36-6.21,2.3-12.45,4.51-5.61,2-11.26,3.94c.14.46.29.92.43,1.38l-.51-1.35q-21.18,7.28-42.68,13.71-14.61,4.37-29.35,8.37c-109,29.63-222.88,44.21-335.91,49.52-91.66,4.31-184.66,2.5-275.95-8.81-66-8.17-131.19-21.31-194.28-40.7q-10.41-3.21-20.74-6.64-8.06-2.67-16-5.48h0q-39.5-13.89-77.69-31.37l-4.17-1.93-.73-.35,2.58-15.29.48-2.81-10.74-35.49-18.39-60.8a138.16,138.16,0,0,1-3.27-19.28c-1.85-17.19-2.27-44,6.7-72.3q.68-2.17,1.44-4.35a152.91,152.91,0,0,1,21.47-40.3c3.11-4.21,6.25-8.07,9.34-11.56A169.12,169.12,0,0,1,425.26,1143c.74-.62,1.44-1.19,2.1-1.72,4-3.22,6.48-4.86,6.48-4.86v-5.7a47.18,47.18,0,0,1,3.22-4.22h0c1-1.24,2.21-2.54,3.48-3.89,3.71-3.92,8.33-8.29,13.46-12.85a.05.05,0,0,1,0,0c13.73-12.2,31.11-25.76,44.27-35.71,5.92-4.48,11-8.22,14.48-10.78h0c3.23-2.36,5.12-3.72,5.12-3.72l4.32-1.24,2.28-.65,16.08-4.6,66.32-19,65.36-49,34.54-9.08h.06a131.8,131.8,0,0,1,9.18-30.54,92.23,92.23,0,0,1,17.31-26.29,74.66,74.66,0,0,1,29.45-19.2,47.55,47.55,0,0,1,9.29-2.34l-15.63,24.6,0,0-.26.41c-5,7.08-6.92,17.6-7.32,28.33,0,0,0,.08,0,.13-.74,20.11,3.88,40.88,3.88,40.88s4.3,17.6,17.65,40.39a.53.53,0,0,0,.06.1,199.64,199.64,0,0,0,23.23,31.89,173.7,173.7,0,0,0,28.56,25.2,248.22,248.22,0,0,0,53.15,28.7C936.83,1130.61,994,1108,994,1108s93.75-39.43,135.19-99.19,38.94-95.09,38.94-95.09c-8.8-2.8-16.58-9.16-22.23-14.95l0-.05c-1.51-1.54-2.87-3-4-4.41l-.06-.08a77.84,77.84,0,0,1-5.38-6.92h28.15L1183,905.78h0l3.08,3.07c1.38.19,2.7.41,4,.68a34.39,34.39,0,0,1,15.26,7.06l0,0c8.11,6.93,10.49,17.27,10.32,27.45v.18c0,2.38-.24,4.75-.52,7.06-.21,1.73-.48,3.43-.79,5.08a0,0,0,0,1,0,0c-.3,1.66-.65,3.27-1,4.81a1.94,1.94,0,0,0,0,.2c-.87,3.61-1.85,6.82-2.73,9.4-1.35,4-2.44,6.47-2.44,6.47.92.06,1.89.16,2.89.3,8.73,1.23,20.28,5.59,31.43,10.61,19.35,8.73,37.48,19.48,37.48,19.48,6.88,6.16,21.19,12.63,36.56,18.36l.13,0c26.58,9.9,56.3,17.58,56.3,17.58l2.89,1.34,65.76,30.54c.7.2,1.4.39,2.09.61,45.57,13.22,74.52,38.59,90.61,57.22l0,0c3.25,3.77,6,7.26,8.21,10.32l0,0a103.27,103.27,0,0,1,8,12.38l0,.24c-1.17,7.79-.2,16.77,1.39,24.76a146.69,146.69,0,0,0,4.16,15.93s0,0,0,.06c1.17,3.63,2,5.85,2,5.85l1.12,2.15,0,0c16.94,33,22.11,62.4,23.67,76.24.21,1.82.36,3.37.46,4.62C1583.54,1288.48,1583.57,1289.8,1583.57,1289.8Z"/></g><path class="cls-6" d="M1301.15,1058.81c17.86,7.06,37.29,13.67,48.9,29,13.71,18.1,12.58,43,11.62,65.65a973.07,973.07,0,0,0,19.94,241.29c-14.51-3.08-26.3-14.15-33.73-27s-11.12-27.45-14.72-41.84c-1-2-1.24-4.91-1.78-7.09l-1.86-7.4-3.7-14.79-7.34-29.28-14.67-58.57-14.67-58.57-14.67-58.57-14.75-58.87c-.4-1.6-1.51-4-1-5.61,2,2.45,3.4,5.74,5.53,8.29a54.35,54.35,0,0,0,7.5,7.36A90,90,0,0,0,1290,1054C1293.64,1055.73,1297.38,1057.31,1301.15,1058.81Z"/><path class="cls-6" d="M1551.26,1262.82l-.21,2.12-.48,4.62c-1.31,12.32-3,24.6-5,36.82s-4.53,24.2-7.53,36.14-6.56,23.85-10.73,35.49q-2.86,8-6.15,15.85-5.54,2.79-11.1,5.5-19.14,9.35-38.67,17.81-7.32,3.18-14.7,6.25,20.29-35.88,40.57-71.77c7.22-12.76,14.45-25.55,22.67-37.68,1.23-1.81,2.49-3.62,3.77-5.4l2.2-3c6.46-8.82,13.28-17.52,18.2-27.34.19-.38.38-.76.55-1.15a56.15,56.15,0,0,0,4.7-13.73c.16-.81.08-2.82.64-3.41a.89.89,0,0,1,1.52.41A8.88,8.88,0,0,1,1551.26,1262.82Z"/><path class="cls-6" d="M712.66,950.27c-9.25,24.68-7.88,52.61.89,77.47s24.53,46.82,43.13,65.5a249,249,0,0,0,259.5,59.07c-24.68-6.53-51.7,4.89-76.07-2.7-9.62-3-18.16-8.8-27.72-12-11.14-3.76-23.25-3.86-34.4-7.61-13.1-4.4-24-13.5-34.57-22.4-22.39-18.87-44.95-37.92-62.93-61s-31.27-50.88-32.25-80.14a104.43,104.43,0,0,1,3.62-30.82A106.11,106.11,0,0,1,764.33,907c1-1.61,3.08-3.62,1.72-5.57-1.2-1.73-3.46-1.85-5.26-1.18a70.27,70.27,0,0,0-12.18,6,84.45,84.45,0,0,0-20.49,17.66,89.82,89.82,0,0,0-14.21,23.21C713.47,948.16,713.06,949.21,712.66,950.27Z"/><path class="cls-6" d="M1145.37,887.94c-1.72,0-3.75.24-4.58,1.75s0,3.17.9,4.49c4.82,7,13.36,10.14,20.52,14.7,13.66,8.7,22.81,23.23,27.9,38.61s6.49,31.69,7.51,47.85a105.37,105.37,0,0,0,15.1-31.72c2.75-9.7,4.08-20,1.81-29.87s-8.54-19.07-17.78-23.12c-4.55-2-9.63-2.69-14-5-4.71-2.47-8.28-6.59-12.11-10.28a30.93,30.93,0,0,0-9.27-6.61,9.31,9.31,0,0,0-3.91-.89c-1.6,0-3.17.13-4.77.1Q1149,887.89,1145.37,887.94Z"/><path class="cls-6" d="M711,1509.6c-66-8.17-131.19-21.31-194.28-40.7q-10.41-3.21-20.74-6.64c-7.38-12.23-16-24.26-22.25-36.76-15.92-31.85-16.51-68.8-21.56-104a396.53,396.53,0,0,0-24-90.13c-4.24-10.68-9-21.47-11.88-32.54h0a72,72,0,0,1-2.56-22,63.74,63.74,0,0,1,5.33-22,86.14,86.14,0,0,1,5.76-11.06c.15-.24.3-.48.44-.72a122.06,122.06,0,0,1,8.58-12c.86-1.06,1.73-2.11,2.6-3.14,3.84-4.49,7.91-8.76,12-12.83l2-1.93.33-.32,3.23-3.08a.05.05,0,0,1,0,0,2.34,2.34,0,0,1,.23-.22,356.39,356.39,0,0,1,33.38-27.83c3.5-2.57,7-5.14,10.66-7.66a266.25,266.25,0,0,1,26.21-16.4c2.32-1.26,4.66-2.45,7-3.59a14.32,14.32,0,0,1,9.07-1,9.15,9.15,0,0,1,4.27,2.17,7.36,7.36,0,0,1,1.64,2.18c1.5,3-.08,5.65-1.38,8.38q-2.75,5.74-5,11.68a210.41,210.41,0,0,0-12.16,49.74,319.17,319.17,0,0,0-2,51.81q.12,3.23.29,6.44c4.21,79.24,29,157.92,74.88,222.65A360.52,360.52,0,0,0,711,1509.6Z"/><path class="cls-7" d="M1352.19,1460.52q-14.61,4.37-29.35,8.37-4.06-2.22-8.26-4.12c-22-10-46.11-14.28-69.14-21.63s-46.09-18.63-60-38.44c-18-25.66-16.87-59.85-28.13-89.08-19.58-50.83-73.6-79.86-126.26-93.76s-108.35-17.3-158.55-38.45c3.12.36,6.24.66,9.37.93a327.74,327.74,0,0,0,38.51.94,337.66,337.66,0,0,0,38.37-3.5,348.8,348.8,0,0,0,142.58-55.06,278.17,278.17,0,0,0,30.84-23.4c7-6.3,11.56-13.79,16.93-21.37,5.71-8,15.19-15.32,24.85-17.67,13.7-3.33,22,7.38,27.6,18.15,43.35,82.65,54.49,178.79,94.28,263.22C1314,1384,1338.22,1421.05,1352.19,1460.52Z"/><path id="Skin" class="cls-8" d="M958.51,194.31l-112.34-3.07s-61.28,22.47-66.38,136.34L743,363.16l-6.92,67.4,1.13,15.28-10.32,20.53-32.58-24.53-11.74,4-4,12.08,3.17,23.7-3.17,24.18-1.85,36.25s4.13,95.09,75,85.08l17.55,99.51,11.24,30.64-1.94,120.91L767.28,912l-13.84,14.54s-31.79,83.13,67.4,161.46c0,0,80,79.57,234.13-11,0,0,81.19-41,116.11-162.11l-31.8-23.34S1119.82,844.53,1120,829s-.44-57.24-.44-57.24l43.15-95.27,24.32-1.36L1212.23,654l21.9-39.56L1252,504s-.37-21.49-20.1-10-27.9,24.85-27.9,24.85l3.14-133.6-17.82-125.95-106.56-66Z"/><g id="L1S"><path class="cls-9" d="M1005.79,515.36c-1.89-.51-3.86-1.06-5.25-2.43-1.88-1.84-2.25-4.71-2.27-7.35-.1-12.27,5.06-23.95,6.82-36.09,1.14-7.89.84-15.91,1.71-23.83a82.24,82.24,0,0,1,32.66-56.59c2-1.44,4.89-2.73,6.58-1,1.35,1.39.81,3.67.19,5.5-8.34,24.6-15,50.35-13.25,76.27a209.81,209.81,0,0,0,2.88,21.93c1.25,7.31,2.61,14.6,3.49,22,.24,2.06.46,4.12.61,6.19a33.19,33.19,0,0,1,.29,6.29c-4.16,1.34-9-1-12.19-3.52-3.65-2.93-8.45-3.62-12.87-4.81Z"/><path class="cls-9" d="M1116,776.13s.39,137.37,55.12,137.24l-8.5,29.36-16.09,38.11s-90.17-70.9-73.39-169.91l23.27-16.24Z"/><path class="cls-9" d="M1116,213.88S1170.2,381.51,1098.77,373c0,0,60.66,11.53,70.73,39.48,0,0,26.44,38.63-33.15,50.22l-17.54,3s50.41,55.76,14.4,135.44-4.35,123-92.49,207l-.49,19,32.87-16.27,42.86-34.8,13.5-24.77,12.59-21.14,19.33-53.71,13.39-43.16,12.38-39.73s10.2-29.24,16.41-73.08V474l-2.88-88.78-12.87-68-4-52.47Z"/></g><g id="L3S"><path class="cls-10" d="M875.71,191.24s-101.38,119,73.41,196l4.69,25.2s-10.07,30.69-8.24,46.56-5.49,51.67-5.49,51.67-12.91,5-21.1,15.73c0,0-7.17,9.51-5.75,21.49,0,0,13.49,11.49,25.66-.57,0,0,7.9-8.65,38.61,5.51,0,0,26.25-2.13,35.29,1.65s14.47,12.5,5.36,24.31,10.2,31.12,10.2,31.12L962.75,603l-72.26,6.91S856,638.54,853.66,645.18,869.73,678.74,891,680.3l8.64,6.69,16.84,15,6.62,9.18,4.47,4.93L945.21,723,962,745.17s-32,26.83-.88,63l-48.91,15.52-53.36-9.15-54.64-39.47-22.8-21.44L766,714.55,758.45,659l-6.69-31.85-22,1.77-29-19.5-21.56-37.93-2.85-49.22,5.15-42.95-3.72-28.23,10.72-10.58L710,451.68l11.82,10.84,10-40.95,7.93-68.74,26.85-53.29,28.88-82L845.71,185Z"/><path class="cls-10" d="M964.36,840.94s-19.28,165.92,93.84,232.16l-29.85,19.8s-95.89,50.24-166.22,19.66-101.87-98.38-101.87-98.38-22-53.3-6.82-87.63L767.28,912s13.68-27.23,12.91-55.84l-1.32-106.83s5.22,13.13,17.38,20.94,47.57,35.6,47.57,35.6,42.56,30.36,72,30.51S964.36,840.94,964.36,840.94Z"/><path class="cls-10" d="M1235.6,538.92l-10.78,62.86-35.59,24.4s-12.2,33.36,23.19,23.6L1196,670.4l-21.85,6.11L1162.72,672,1179,619.85s26.32-6.93,33-26.23-6.13-34.55-6.13-34.55l-.58-1.07,2.24-4,8.89-12.61,15.16-15.66,3.2,5.19Z"/><path class="cls-10" d="M1171.64,417.81s-39.57-4.05-35.8,17.09c0,0,26.05,23.57.51,27.76s-32.85,6.1-32.85,6.1l-38.86-3.21-25.05-9.4-2-2.85s-22.27-16.67-5.39-55.93,123.87,0,123.87,0Z"/></g><g id="L4S"><path class="cls-11" d="M691.13,478.32,689.3,494.9s17.78,16.15,9.84,25.21l-1.13,2.1-2.63,3.62-1,3.51,6.75,27,26.87,20.75s18.81,17.79,21.45,31L746,576.61l-3.16-15.86-3.53-14.39-1.63-5.44s-8.05-15-9-25.53-1.07-19.17-1.07-19.17l-1.12-18.66L718.84,465s11.85,49.07-4.12,40.93l-6.81-11.34Z"/><path class="cls-11" d="M843.82,805.88s-34.33,239.86,69.41,314.42l-34.81-1.52-51.74-25.89L770,1035.61,748.1,972.76l4.66-49.58s14.61-6.14,17-21.91l7.07-13.22,3.71-50.44-1.07-40.43-1.72-45.47S825.07,799.62,843.82,805.88Z"/></g><path class="cls-11" d="M781.3,398.69c-2.55,12.48-.25,25.56,4.2,37.5,3.84,10.28,9.66,20.38,19,26.12,12.49,7.68,28.34,6.05,42.88,4.17l38.44-5c6.26-.81,12.87-1.77,17.77-5.75,3.22-2.61,5.41-6.32,8.65-8.9,7.27-5.81,17.94-4.72,26.22-9a26.22,26.22,0,0,0,12.19-14.6A40.31,40.31,0,0,0,952.14,404c-1.16-8-4.2-15.9-9.68-21.83-6.14-6.64-14.78-10.33-23.32-13.31Q911.19,366.1,903,364c-5.52-1.43-11.11-2.63-16.73-3.57s-11.24-1.63-16.9-2a166.59,166.59,0,0,0-17-.4,152.37,152.37,0,0,0-16.8,1.37,140,140,0,0,0-16.48,3.26A117.87,117.87,0,0,0,805.34,367a23.26,23.26,0,0,0-7.27,4.46,69.27,69.27,0,0,0-8.84,9.52,44.29,44.29,0,0,0-7,14C781.87,396.19,781.56,397.43,781.3,398.69Z"/><path class="cls-11" d="M789.9,699.2c-13.2-37.53-22.07-76.43-30.5-115.31-4.46-20.53-9.94-42.95-26.84-55.44q14.6,81.87,29.18,163.74c3.46,19.39,7.08,39.25,17.06,56.23a92.44,92.44,0,0,0,10.86,14.78,119.25,119.25,0,0,0,13.25,12.57,175.62,175.62,0,0,0,15,10.92c5.23,3.44,10.6,6.67,16,9.78l4.05,2.29,2.1,1.18c.31.17,1.54,1.11,1.87,1,1-.34-3.34-5.82-3.8-6.45q-6-8.26-11.39-16.92t-10.27-17.64q-4.89-9-9.27-18.32t-8.27-18.71q-3.91-9.49-7.41-19.16Q790.7,701.48,789.9,699.2Z"/><path id="Lips" class="cls-12" d="M900.56,622.65a64,64,0,0,1,39.79-5.58c9,1.65,17.51,5.22,26.49,6.78,12.52,2.16,25.49.34,38,2.68a57.7,57.7,0,0,1,46.85,52.24c-10.07-.47-19.68,4.29-27.82,10.24s-15.31,13.16-23.7,18.73c-18,12-42.3,15.32-61.65,5.7-9.88-4.91-17.94-12.74-25.83-20.45l-7.93-7.73-7.88-7.71-7.93-7.74L881,662.08l-4-3.87a21.84,21.84,0,0,1-3-3.36,6.38,6.38,0,0,1-.49-6.27,34.79,34.79,0,0,1,4.76-7.49A64.4,64.4,0,0,1,891,628.5a63.31,63.31,0,0,1,7.59-4.84C899.26,623.31,899.91,623,900.56,622.65Z"/><path id="Lips2" class="cls-12" d="M909.31,627A65.73,65.73,0,0,1,952,629.62c6,2.52,11.81,6,18.28,6.91,9.77,1.39,19.44-3.22,29.31-3.31,11.8-.11,22.88,6.34,31,14.91s13.67,19.17,19.14,29.62c-26.54,2.14-48.39,23.46-74.84,26.54-21.83,2.55-43.09-7.78-61.39-20q-4.14-2.76-8.18-5.67t-8-6q-4-3.06-7.82-6.27t-7.56-6.53q-1.87-1.67-3.71-3.37l-1.83-1.71a6.83,6.83,0,0,1-1.46-1.67,3.11,3.11,0,0,1,.49-3.23,30.19,30.19,0,0,1,2.83-3.47,66.34,66.34,0,0,1,21-15.63,64.22,64.22,0,0,1,8.16-3.2C908,627.37,908.63,627.17,909.31,627Z"/><path id="Teeth" class="cls-4" d="M888.3,649.54s-1.92,15.39,0,16.69,34.46,9.1,41.61,17.91L965.66,691s23.23-6.1,43.4-1.5l6.51-2.43,13.15-2.93,9.34-4.47L1037,668l-6.44-1.73s-5.84-5.58-16.81-5.2c0,0-5.34-8.18-20-5.24l-12.33-2.55h-8.43l-5.49,1.41-4.82-3.09-8.2-1.51-15.06,1.53-6.13-3.06-8.94-.77-8.29,1.66-7.79-1.27-10.21,2Z"/><g id="Eyes-Bg"><path class="cls-4" d="M929,436.6s-42.29-56-106.61-9.3C822.41,427.3,883.32,464.18,929,436.6Z"/><path class="cls-4" d="M1040.72,454.86l11.62,4.85s23.74,18.26,80,1.91C1132.38,461.62,1091.79,402.77,1040.72,454.86Z"/></g><g id="Pupils"><circle class="cls-13" cx="1087.4" cy="450.88" r="18.46"/><circle class="cls-4" cx="1093.12" cy="443.26" r="6.34"/><circle cx="1087.4" cy="450.88" r="5.72"/><path class="cls-14" d="M1072.12,454.89c1.14,2.72,2.4,5.5,4.61,7.45a20.61,20.61,0,0,0,6.06,3.3,17.78,17.78,0,0,0,4.4.93,12,12,0,0,0,5.56-.87,3.33,3.33,0,0,0,2.76-4.19c0-.65-.1-1.4-.65-1.73a2,2,0,0,0-1.48,0,25.05,25.05,0,0,1-8.76.36,13.27,13.27,0,0,1-3.72-1,6.78,6.78,0,0,1-2.93-2.44c-.56-.88-.85-1.91-1.36-2.82a3.24,3.24,0,0,0-2.37-1.85,2.08,2.08,0,0,0-1.65,3.54"/><circle class="cls-13" cx="877.94" cy="426.66" r="18.46"/><circle class="cls-4" cx="883.66" cy="419.03" r="6.34"/><circle cx="877.94" cy="426.66" r="5.72"/><path class="cls-14" d="M862.66,430.67c1.14,2.72,2.4,5.5,4.61,7.45a20.61,20.61,0,0,0,6.06,3.3,18.25,18.25,0,0,0,4.4.93,12,12,0,0,0,5.56-.87,4.41,4.41,0,0,0,2.13-1.19,4.48,4.48,0,0,0,.63-3c0-.64-.1-1.39-.65-1.72a2,2,0,0,0-1.48,0,25.05,25.05,0,0,1-8.76.36,13,13,0,0,1-3.72-1,6.76,6.76,0,0,1-2.93-2.43c-.56-.89-.85-1.91-1.36-2.83a3.22,3.22,0,0,0-2.37-1.84,2.08,2.08,0,0,0-1.65,3.54"/></g><g id="Outline"><path d="M1643,1194.63c-12.69-54.24-38.15-97.4-77.84-131.94-45.16-39.31-118.89-65.57-190.2-91-58.63-20.88-114-40.61-152.15-66.43-18.38-12.44-40.37-18.57-57.7-21.59l-.13-.11-.07.08a200.13,200.13,0,0,0-26.44-2.83c-.5-1-1-2-1.4-3.11-9.83-24.58-21.21-85.92-10.3-112.41l-9.25-3.81c-12.38,30.06.29,95,10.26,119.94,8.41,21,28.5,32.28,37.34,36.37-23.09,84-64.37,115-64.79,115.34l-.31.22-.27.28c-57.71,57.19-115.79,75.68-154.36,81.12-39.55,5.58-67.27-1-70.41-1.84-92.18-40.12-114.78-101.78-120.05-135-4.63-29.16,1.72-49.1,4.36-51.42,11.1-8.67,16.34-23.13,17.91-28.22,3.36-3.13,5.88-10.34,7.27-28.63,1-12.75,1.28-30,.92-51.25-.61-36-3-71.76-3-72.12l-10,.67c0,.33,2.24,34,2.91,68.74,1.17,60.5-3.25,72.58-4.74,74.92-5.28,1.22-24.52,6.5-36.75,21l-18.36,1.26-4.69,6.34c-12.2,4.18-93.66,33.48-163.58,93-11.42,5.28-139.27,64.93-159.3,93-19.56,27.38-40.28,66.53-41.31,68.49-1.53,2.72-24.61,45.16-25.6,134-.2,17.41-.69,31.54-1.12,44-.39,11.38-.73,21-.7,29.58q2.7,1.67,5.42,3.29c1.56.94,3.12,1.88,4.69,2.8-.29-9.86.1-21.12.59-35.32.43-12.51.92-26.7,1.12-44.23,1-87,24.1-128.79,24.33-129.2l.09-.15c.21-.4,21.07-40,40.63-67.4,15.76-22.07,117.93-72.45,156-90l.63-.29.53-.45c73.95-63.21,161.36-91.82,162.23-92.1l1.53-.49,3.83-5.19,3.62-.24c-8.78,10.81-21.28,29.77-22.42,51-16.54-.86-34.49,6.06-53.44,20.65-4.95,3.81-9.78,7.9-14.45,11.86-10.71,9.08-20.84,17.66-32.76,23.55-12.44,6.15-26,9-40.35,11.92a278.3,278.3,0,0,0-27.46,6.67,140.21,140.21,0,0,0-58.3,36c-11.1,11.48-21.34,20.51-31.29,27.63l-.81.57c-3.35,2.39-6.81,4.85-9.66,8.31a20.14,20.14,0,0,0-4.88,12.4c-40.33,31.46-65.87,80.41-68.47,131.53-1.34,26.34,7.75,51.59,16.54,76,3.85,10.71,7.84,21.79,10.81,32.66,3.81,13.93,7.74,28.34,6.23,42.57q-.29,2.67-.8,5.32c1.47.69,2.95,1.39,4.43,2.07l.73.35,4.17,1.93a84,84,0,0,0,1.41-8.61c1.72-16.11-2.66-32.13-6.52-46.27-3.08-11.24-7.13-22.51-11.05-33.4-8.46-23.49-17.2-47.79-16-72.13,2.1-41.24,20-81,49-110.21a162.8,162.8,0,0,1,17.73-15.52l2.52-1.89-.63-3.09c-.44-2.18.5-4.93,2.5-7.36a39.84,39.84,0,0,1,7.74-6.52l.82-.59c10.45-7.47,21.14-16.89,32.67-28.8a130.12,130.12,0,0,1,54.12-33.48c2.74-.86,5.53-1.64,8.35-2.35,6-1.55,12.13-2.81,18.12-4,14.34-3,29.17-6,42.76-12.75,13-6.43,24.09-15.82,34.8-24.89,4.58-3.88,9.31-7.9,14.08-11.57,17.3-13.31,33.28-19.52,47.58-18.52.95,10.58,3.94,22,7.95,33.17v0c8.27,23,20.86,44.65,28.77,54.7l.95,1.2a317.55,317.55,0,0,0,24,27.66l.08.08h0c21.3,21.73,54.56,48.53,100.43,62.38a218.42,218.42,0,0,0,63.07,8.9c43.51,0,77-11.36,80.48-12.57,4.95-1.35,71-20.37,143.32-91.69,33.28-32.83,50.63-61.4,59.61-83.14,13.79,1,28.77,6.25,46.53,16.11,5.81,3.22,11.64,6.74,17.27,10.15,11,6.63,22.35,13.49,34.46,18.74,13,5.65,26.8,9.38,40.11,13,6.22,1.69,12.66,3.43,18.88,5.33,28.65,8.77,55.61,21.7,85.37,36.46,17.19,8.52,36.67,18.18,53.78,30.73,17.86,13.08,30.89,27.79,38.74,43.72-2.58,23.91,7,46.69,16.32,68.73,7.62,18.07,15.5,36.76,16.18,55.41.56,15.71-3.86,31.64-8.14,47q-.95,3.38-1.86,6.73c-3.33,12.24-6.23,24.58-8.78,37,2.06-1.17,4.13-2.35,6.18-3.54l.5-.29q2.5-1.44,5-2.91,3-13.89,6.76-27.63c.6-2.22,1.22-4.44,1.84-6.67,4.49-16.13,9.12-32.81,8.5-50.07-.74-20.48-9-40-17-58.93-9.39-22.26-18.25-43.29-15.45-65.07l.19-1.46-.63-1.32c-8.49-17.94-22.78-34.36-42.47-48.79-17.81-13-37.7-22.92-55.25-31.62-30.17-15-57.52-28.07-86.89-37.06-6.38-2-12.89-3.71-19.2-5.42-13-3.51-26.38-7.15-38.74-12.5-11.5-5-22.56-11.67-33.27-18.13-5.71-3.45-11.62-7-17.59-10.33-11.84-6.57-28.88-14.93-47.74-17.06,6.46-19.27,6-31.51,5.73-34.26.27-4.58.21-30-33.36-36.26l-7.22-6.7c12.55,3.37,25.95,8.52,37.53,16.36,39.19,26.53,95.15,46.47,154.4,67.57,70.44,25.08,143.26,51,187,89.08,86.39,75.19,85,179.8,84,249v.28q2.26-1.66,4.51-3.35c1.87-1.4,3.74-2.8,5.59-4.22C1653.1,1278.05,1652.93,1237.07,1643,1194.63Zm-498.76-134.48c-71.55,70.57-138.4,89-139.06,89.2l-.4.12c-.07,0-.95.33-2.53.83-13,4.07-74.19,21.11-135,2.76-67.42-20.35-106.64-70.31-119.53-86.73l-1-1.22c-12.7-16.13-35.23-59.72-34.92-89.16.27-25.54,21.36-49,26.71-54.59l.38,0,1.38-1.81c6.69-8.78,17-13.91,24.37-16.66-2.38,5.18-6.14,11.51-11.6,15.77-7,5.44-12.27,28.55-8.72,56.41,4.24,33.18,23.41,92.19,102.07,135.12h0q11.54,6.29,24.84,12.09l.64.22c.89.25,16.57,4.54,41.86,4.54a236.29,236.29,0,0,0,32.4-2.27c40.15-5.57,100.52-24.62,160.28-83.75,4.44-3.34,45.16-36,68.38-121.06.34-1.24.68-2.5,1-3.77l1.14-4.41-4.28-1.56c-.2-.08-15.9-5.93-27.23-18.89,4.11.35,9.26.91,15,1.84l21.68,20.11,1.48.24c28.13,4.63,26.76,23.94,26.51,26.09l-.07.61.06.58c0,.13,1.22,12.45-6.22,33.17a152.62,152.62,0,0,1-6.79,15.88C1188.15,1008.34,1172.2,1032.57,1144.24,1060.15Zm405.17,189.33c-1.56,9.18-3.12,18.39-4.77,27.58-6.93,38.69-15.27,77.18-30.57,113.28q-1.92,4.53-4,9,5.57-2.71,11.1-5.5,6-3,11.87-6.1c9.3-25.35,16.08-51.77,21.49-78.23C1558.65,1289.24,1561.52,1266.27,1549.41,1249.48Zm-16.8-14.83A540.06,540.06,0,0,1,1445.54,1428q5.58-2.25,11.14-4.55,7.38-3.06,14.7-6.25,19.29-34.93,35.56-71.42c4.63-10.38,9.09-21,13-31.78C1529.19,1288.28,1535.23,1261.6,1532.61,1234.65Zm-94.77,128.27c-.84,22.58-18.76,40.5-26.88,61.59a89.05,89.05,0,0,0-4.75,18.33q6.24-2.21,12.45-4.51C1425.05,1413.22,1442.13,1388.64,1437.84,1362.92Z"/><path d="M517.36,1465c-.23,1.28-.45,2.57-.66,3.86q-10.41-3.21-20.74-6.64-8.06-2.67-16-5.48h0c-12.25-17.76-24.24-36-28.13-57-3-16.2-.9-32.83-.61-49.3s-1.53-33.87-11.12-47.26c-4.26-5.94-9.93-10.91-13.24-17.43s-4-13.84-4.63-21q-2.94-33-5.89-66h0q-.78-8.7-1.55-17.4a460.64,460.64,0,0,1,67.38,205.52c.73,9.19,1.36,18.94,6.7,26.46,7.5,10.55,22.75,14.38,28.22,26.12C520.7,1447.33,518.87,1456.5,517.36,1465Z"/><path d="M1350.38,1360.84c-1.36-9.07-3-18.1-4.94-27.08s-4.08-18-6.4-27-4.83-17.9-7.43-26.8-5.27-17.75-8-26.61-5.46-17.72-8.17-26.59-5.4-17.82-8-26.77-5-17.82-7.29-26.79-4.35-17.88-6.2-26.89c-9-44.07-12.87-91.09-37.81-128.53-3.92,17,.1,34.73,4.11,51.72q1.6,6.81,3.22,13.63,3.35,14.17,6.71,28.33t6.77,28.2q3.43,14.14,6.94,28.28t7.1,28.12q3.62,14.1,7.37,28.16t7.63,28q3.92,14,8,28t8.38,27.73q4.32,13.88,8.87,27.68t9.35,27.41q2.4,6.83,4.88,13.64c.91,2.51,2.72,6,5.84,6.3,1.19.11,1.53-.52,1.54-1.62a60.52,60.52,0,0,0-.71-6.84Q1351.41,1367.65,1350.38,1360.84Z"/><path d="M1383.43,1348.23l10.61,19.23a716.27,716.27,0,0,1-17.54-138c-.78-26.53-.08-53.17-3.3-79.51s-10.63-52.76-26.08-74.33c1.79,5.67,3.91,11.34,5.4,17.1-1.16-1.33-2.55-4.48-4.64-4.26-2.41.26-1.74,2.42-1.3,4q2.07,7.62,3.45,15.4a235.76,235.76,0,0,1,3.31,31.6c.46,10.7.36,21.42,0,32.12s-.86,21.57-1.3,32.36-.8,21.52-.73,32.28c0,1.33,0,2.66,0,4,1,62.69,17.86,123.75,36.45,183.82A207.72,207.72,0,0,1,1383.43,1348.23Z"/><path d="M1395.38,1448.16l-.51-1.35a203.61,203.61,0,0,1-7-22.8q3.54,11.41,7.12,22.77C1395.09,1447.24,1395.24,1447.7,1395.38,1448.16Z"/><path d="M1230.78,523.57l11.71-12.9-6.24,31.69a29.54,29.54,0,0,1-4.66-15.06c0,.23-1.12,1.07-1.31,1.26l-1.3,1.26c-.88.87-1.75,1.74-2.62,2.62-1.71,1.75-3.4,3.52-5,5.32q-5,5.4-9.56,11.13c-.85,1.07-1.7,2.14-2.53,3.22-.42.55-.82,1.1-1.25,1.64-.2.25-.5.68-.83.75a5.12,5.12,0,0,1,.73-1.41c.31-.56.63-1.12,1-1.68.64-1.1,1.31-2.17,2-3.24,1.38-2.15,2.86-4.25,4.39-6.3s3.12-4,4.76-6,3.31-3.91,5-5.83,3.43-3.84,5.16-5.74Z"/><path d="M1210.66,595.83c-.12,4.91-2.75,9.46-6.07,13.09s-7.35,6.52-11,9.76-7.17,7-8.89,11.58l26.38-13c4.25-2.09,8.64-4.29,11.63-8a21.27,21.27,0,0,0,4.28-11.22,48.48,48.48,0,0,0-.6-12.14c-.94-6.31-2.37-12.69-5.66-18.16s-8.71-10-15-10.78c-2.79,3.14-5.66,6.44-6.74,10.49a10.9,10.9,0,0,0,.09,5.94,9,9,0,0,0,1.27,2.65c.57.78,1.33,1.38,1.92,2.13.47.6.86,1.25,1.33,1.85.71.89,1.46,1.76,2.14,2.68a29.42,29.42,0,0,1,3.49,5.83,17.66,17.66,0,0,1,1.53,6.43C1210.67,595.26,1210.67,595.54,1210.66,595.83Z"/><path d="M689.1,469.6a152.78,152.78,0,0,1-.67,26.45c1.87,0,2.69-2.34,3-4.19q.76-5.14,1.22-10.33c0,.16,1.25,1,1.42,1.12l1.44,1.2q1.42,1.2,2.79,2.46c1.83,1.68,3.59,3.45,5.27,5.28s3.31,3.76,4.84,5.73,3,4,4.32,6.09c.68,1,1.33,2.12,2,3.19a28.71,28.71,0,0,0,1.62,2.8,1.64,1.64,0,0,0,.19.25,8.25,8.25,0,0,0-.66-1.88c-.29-.73-.58-1.46-.89-2.19q-.95-2.19-2-4.32a88.36,88.36,0,0,0-4.79-8.27c-1.75-2.69-3.64-5.3-5.6-7.84s-4-5-6.16-7.48-4.28-4.84-6.46-7.21C689.63,470.17,689.37,469.88,689.1,469.6Z"/><path d="M723.65,569.94c-3.16-2.71-6.82-4.77-10.11-7.32-5.59-4.33-10.15-10.28-11.75-17.18s.16-14.73,5.34-19.56a41.62,41.62,0,0,1-6.59,4.41,4.57,4.57,0,0,1-3.15.75c-1.59-.39-2.34-2.36-2-4A9.81,9.81,0,0,1,698,523a9.2,9.2,0,0,0,2.48-4.16A33.12,33.12,0,0,0,695.69,561a13.1,13.1,0,0,0,4.63,4.61c2.3,1.19,5,1.22,7.45,2.14,3,1.14,5.25,3.53,7.62,5.67s5.14,4.16,8.33,4.26a28.52,28.52,0,0,1,3.58,0,3.57,3.57,0,0,1,1.27.45c.28.15.66.65,1,.7s.08-.46,0-.72c-.15-.44-.31-.86-.5-1.28a17.4,17.4,0,0,0-3.12-4.65A22.45,22.45,0,0,0,723.65,569.94Z"/><path d="M1180.53,285.42s-6.89,84.77,15.57,124.09l-2,51.57s-.25,22.47,3.32,36.51,2.81,48.77,2.81,48.77,1.28-39.32,12.77-39.83l2.29-10.21,4.09-20.68,10.21-23.49,2.81-18.9,2.55,1V420a63.83,63.83,0,0,0,7.28-21.45l2.42-2.42.77-15.32,4.09-5.11.89-7.53,3.06-.9,1.41-4.59s42.64-16,38.81-76.21c0,0,17.95-30.9-11.83-71.58,0,0-2.73-31.83-20.26-39.32,0,0,3.26-53.44-22.28-71.49,0,0,2.88-45.78-54.83-43.57,0,0,10,2.93,9.49,6.89s-16.34-.64-18.38-9.45c0,0-3.06,3.83-2.81,6.13s-5-1.15-5-1.15-4.08-20.68-41.74-22.34-49.92-32-49.92-32-2.8,4.6-1.91,7.92-18.38-14.69-18.38-14.69a24.89,24.89,0,0,0-18.26,0c-9.45,4-17.49-1.75-17.49-1.75S996.57-.53,993,8.79c0,0,6.13-3.32,6.64.25S993,12,993,12s-43.53-23.75-77.49-3.07c0,0-31.15-5.61-48,2.05a43.38,43.38,0,0,1-32.43,1s-11.49,9.19-12.76,19.15c0,0-13,3.57-16.85.76s-3.07,13.28-3.07,13.28-12.25,9.7-20.42,8.94S764.87,75,764.87,75L763.08,84l-33.1,22s-39.83,28.26-13.28,57.2c0,0,4.08,7.83,11.4,11.06,0,0-35.57,9-38,35.57a132.2,132.2,0,0,1-12.77,46s4.43-.85,5.45-1.87-.51,11.06-5.45,13.45,8.34,40.51,8.34,40.51l8.94,8.51,7.4,9.7-.68,15.74,2.3,3.75,3.4,1.79-.08,5.53s-1.7,3.4-1.79,3.66-1.28,2.89-1.28,2.89l.85,4.6.86.93a22.24,22.24,0,0,1,1.78,2,12.23,12.23,0,0,0,1.36,1.44s-4.17,54.64,6.05,85.28c0,0,11,6.51,9.57,16.34s1.92,44,5.36,51.19c0,0-.25-54.38,8-64.34s6.12-57.45,6.12-57.45S738,360.74,768.27,348s38.64-108.26,38.64-108.26,10.81-49.53,79-42.13,169.79,2.3,169.79,2.3S1135.08,214.45,1180.53,285.42Z"/><path class="cls-15" d="M1204.55,517.05l28.58-24s22.46-7.15,18.38,18.38L1238,580.06l-3.58,33.7s-31.4,82-70.47,59l-1.21-.7s-27.64,98.24-76.91,130.92-80.68,33.19-80.68,33.19-82.81,19.74-143.41-19.75-67.4-48-67.4-48-24.51-15.66-32-74.89-10.56-66.38-10.56-66.38-22.63,4.59-31.15-.51-31.14-25.37-39.14-52.94-4.69-70.21-2.64-75.83,3.32-29.11,0-39.06,7.15-16.6,7.15-16.6,12.25-5.36,24,12c0,0,8.29,5.43,13.4,5"/><path d="M1207.76,520.79s-4.64,5-7.08,18.13l1.25-21.5.73-4.46,5.27,3.32Z"/><path d="M706.49,457.93s14.89,7.49,18.38,27.32l2.38-22-6.72-6L709.64,455Z"/><path d="M1030.57,399.72l24.17-5.27a136.13,136.13,0,0,1,35.07-5.62c18.72-.34,44.08,4.42,44.08,4.42s33.87,14.3,41,33.88l-3.23-22.81s-18.55-27.24-40.85-35.07l-9-3.06s-25.71.51-37.28-2.55-25.7,10-25.7,10-1.53-4.09,11.57-11.23c0,0-10.21,1.19-16.34,7.14l3.24-5.78-3.24,1.19,3.58-4.94s-4.94-.34-10.73,8C1046.91,368.06,1036,375.55,1030.57,399.72Z"/><path d="M791.72,378.62c-10.56,5.12,35.62-39.83,69.66-40.17s66.72,13.27,66.72,13.27l-3.23-4.25c18.38,4.59,20.94,15.15,20.94,15.15v-7.49c8,11.23,8,36.25,8,36.25l-3.07,4.94s-25.19-27.07-63.15-28.94c0,0-9.15-2.55-14-3.06C873.55,364.32,826.78,361.59,791.72,378.62Z"/><path d="M1018.15,578.79s33.7-6.3,12.25-45.11C1030.4,533.68,1059.85,568.91,1018.15,578.79Z"/><path d="M919.59,525.34S899.34,557.17,937,570.45C937,570.45,894.06,560.23,919.59,525.34Z"/><path d="M964.19,565.7s-5.28-6.45-13.32-4.21-15.89-1-15.89-1-5.3-11.62,9.38-15.39S964.19,565.7,964.19,565.7Z"/><path d="M999,563.64s6.3,10.09,23.57,4.59c0,0,.51-12.17-12.34-14.38,0,0-15.23-3.32-17,20.77C993.21,574.62,994.57,563.38,999,563.64Z"/><path class="cls-16" d="M1039.59,453.68s48.68-51.4,93.62,8.17c0,0-54.47,17-80.85-2.38C1052.36,459.47,1042.32,458.79,1039.59,453.68Z"/><path class="cls-16" d="M929.47,437.17l-17,8.17s-62.63,5.11-90.89-17.36C821.55,428,879.76,379.13,929.47,437.17Z"/><path d="M888.13,647.34s-12.2-1.85-14.94,3.7,8.62,16.47,13.4,16.92c0,0,1.73-.32,2-1.28s-1.79-14.36,1.85-16.47C890.42,650.21,891.13,648.3,888.13,647.34Z"/><path d="M1030.59,664.89s.19,7.22-.95,10.22c0,0,3.06-1.54,5.87-7a23.71,23.71,0,0,1-.45,14.68s5.24-3.19,15.77-3.76C1050.83,679,1049,670.13,1030.59,664.89Z"/><path class="cls-17" d="M1037,678.36s-1.53,5-13,6.89-14,4-14,4-27.83-3.57-44.17,1.79c0,0-26.56-6.55-33.32-6.66s7.66-3.17-45.58-18.11"/><path class="cls-17" d="M886.91,649.51s8.43-.6,11.24.94c0,0,5.44-4.32,17.78-1.05,0,0,14.05-5.93,23.66,2,0,0,24.51-4.76,26.64,3.83,0,0,10.3-5,27.92.68,0,0,12.85-4,19.74,5.11,0,0,14.72-.6,18.81,9.7"/><path class="cls-18" d="M922.48,588a73.08,73.08,0,0,0-10.79,3.23q-15.62,5.63-30.8,12.35c-5.52,2.45-11.11,5.08-15.46,9.27-8.89,8.6-10.9,21.89-12.42,34.17a18.13,18.13,0,0,1,14.81-8.18c10.14-7.7,20.37-15.47,31.92-20.84s24.66-8.22,37.12-5.58c9.94,2.1,19,7.57,29,9.22,10.7,1.76,21.63-.94,32.46-.51,16.46.66,32.08,8.69,44,20.09s20.32,26,26.68,41.17L1068,672l2.11,3.12c.72-8,1.44-16.16.18-24.12s-4.71-15.87-11-20.91c-7.74-6.22-15.89-9.72-23.56-16-7.24-5.94-13.52-13.47-21.48-18.41-8.2-5.1-18.66-3.56-28.33-3.43a86.92,86.92,0,0,1-14.14-1,89.48,89.48,0,0,1-13.89-3.25,88,88,0,0,1-13.14-5.42,61.54,61.54,0,0,1-6-3.39c-1.52-1-3.68-.1-5.25.44a22.7,22.7,0,0,0-10.16,7.06C923.08,587.14,922.77,587.54,922.48,588Z"/><path d="M886.91,677.34c6.46,3.9,12.69,8.16,18.77,12.69,2.9,2.42,5.71,5,8.47,7.58a71,71,0,0,1,7.74,8.54l.85,1.22.78,1.3c.23.47.48.91.69,1.41l.5,1.3a7.75,7.75,0,0,0,3.42,3,44.19,44.19,0,0,0,10.26,3.51,161.16,161.16,0,0,0,22.08,3.23c3.72.31,7.45.54,11.18.66,1.86.06,3.72.09,5.57.07.92,0,1.84,0,2.73-.09.44,0,.89-.06,1.25-.12.17,0,.78-.2,1.27-.32,3.77-.82,7.33-1.53,10.84-2.66a40.77,40.77,0,0,0,9.84-4.53,23,23,0,0,0,7.36-7.46l1.5-2.44a22,22,0,0,1,1.72-2.42c.56-.82,1.27-1.49,1.9-2.25a17.69,17.69,0,0,1,2.09-2.06,52.22,52.22,0,0,1,9.73-6.18,58.06,58.06,0,0,1,10.61-4c-6.82,3.13-13.29,7.15-18.31,12.43a37.89,37.89,0,0,0-3.66,3.95,19.1,19.1,0,0,0-1.54,2.18l-1.46,2.36a26,26,0,0,1-8.3,8.44,43.61,43.61,0,0,1-10.57,4.88c-3.65,1.18-7.48,1.94-11.06,2.72-.42.1-.71.21-1.46.36-.57.09-1.05.12-1.55.16-1,.06-1.94.08-2.9.09-1.91,0-3.81,0-5.7-.07q-5.68-.19-11.33-.67a162.68,162.68,0,0,1-22.51-3.3,47,47,0,0,1-11-3.79,16.23,16.23,0,0,1-2.59-1.73,7.73,7.73,0,0,1-2.15-2.73l-.51-1.33c-.16-.37-.37-.75-.55-1.12l-.68-1.12-.75-1.09a68.18,68.18,0,0,0-7.4-8.14c-2.67-2.58-5.49-5-8.34-7.44C898.29,687.2,892.63,682.25,886.91,677.34Z"/><path d="M750.16,628.83c-.6-7.75-1.33-15.56-2.14-23.32s-1.73-15.55-2.78-23.3S743,566.73,741.59,559a181.14,181.14,0,0,0-5.49-22.81,180.71,180.71,0,0,1,7.19,22.43c2,7.6,3.78,15.26,5.4,23s3.13,15.41,4.53,23.14,2.71,15.48,3.89,23.3Z"/><path d="M1158,670.55,1186.64,591l0-.12h0c2-4.25,3.91-8.62,5.6-13q1.28-3.32,2.31-6.72a31.09,31.09,0,0,0,1.42-7,31.5,31.5,0,0,1-.81,7.1c-.48,2.35-1.06,4.67-1.72,7-1.31,4.61-2.81,9.14-4.48,13.65l0-.12-21.56,81.77Z"/><path d="M1049.55,427.13a43.35,43.35,0,0,1,5-4.23,63.47,63.47,0,0,1,5.54-3.62,58.67,58.67,0,0,1,12.15-5.31,55,55,0,0,1,13.1-2.38,54.11,54.11,0,0,1,13.32.9,64.7,64.7,0,0,1,12.71,4.07l3,1.48c.5.26,1,.49,1.49.76l1.43.84,2.86,1.69,2.74,1.89,1.36.95c.45.32.87.68,1.31,1l2.59,2.06c1.7,1.41,3.29,2.95,4.93,4.41l4.59,4.75q2.16,2.49,4.28,5a116.59,116.59,0,0,0-19.94-16.9l-2.74-1.75-2.83-1.59-1.42-.8-1.46-.7-2.94-1.37a64.45,64.45,0,0,0-12.32-3.85,56,56,0,0,0-25.6,1,64.29,64.29,0,0,0-12.13,4.68A61.63,61.63,0,0,0,1049.55,427.13Z"/><path d="M929.47,425.34a112.81,112.81,0,0,0-8.9-10.47,119.23,119.23,0,0,0-10-9.39,80.22,80.22,0,0,0-23.21-13.94,50.81,50.81,0,0,0-13.13-3.08,46.82,46.82,0,0,0-13.47.45,53.55,53.55,0,0,0-13,4,59.27,59.27,0,0,0-6.13,3.05,33.78,33.78,0,0,0-2.94,1.78l-2.92,1.82c1.85-1.35,3.63-2.83,5.58-4.06a61.36,61.36,0,0,1,6-3.47,49.61,49.61,0,0,1,40.67-2.36,75.55,75.55,0,0,1,23.54,14.64A99.89,99.89,0,0,1,929.47,425.34Z"/><path d="M927.86,723.51c.29,2.08-.13,4.61-2.56,5.53a2.75,2.75,0,0,0,2.89,1c1.19,3.79,4.46,7.17,8.85,9.13l0-2.09c2.61,4.25,7.57,7.6,13.39,9l-.4-4.28a23.91,23.91,0,0,1,12.08,7.54l13.55-7.22.36,2.51a32.81,32.81,0,0,0,11.87-5.79l1.06,2.1a35.67,35.67,0,0,0,5.75-19.83l1.51,3.23,2.34-6.72c-7.65,2.89-16.29,4-24.81,4a220.41,220.41,0,0,1-25.43-1.84l-11.67-1.3-5.83-.65a6.76,6.76,0,0,0-2.32-.16c-.6.18-.73.86-.83,1.27A12.41,12.41,0,0,0,927.86,723.51Z"/><path d="M1050.92,793.25a58.12,58.12,0,0,1-16.66,11.23,11.27,11.27,0,0,0-.8-6.68,29.34,29.34,0,0,1-8.43,8.83l-.33-5.74-3.47,2.65-1-3-4.94,2.53a12,12,0,0,0-2.3-7.56l-6.15,8.64c-1-5.33-7.42-8.05-12.83-7.46s-10.25,3.45-15.36,5.32-11.29,2.59-15.61-.71l-6.5,5.12-6.69-4.35c-.11,2.39-3.19,3.63-5.49,3s-4-2.47-6-3.9-4.5-2.52-6.67-1.5c-1.59.74-2.5,2.41-3.79,3.61-2.92,2.72-7.64,2.68-11.25,1s-6.4-4.75-9.07-7.72L906,799.07,895.9,792l-.45,2.57a57.81,57.81,0,0,1-9.64-13.08L883.08,784l-4.86-7.92-3.52,4.51-4.07-5.54L865.7,787.7,860.14,783a37.31,37.31,0,0,1-2.69,17.1,4.79,4.79,0,0,1,1.52,5.73l2.69-2.53c-1.24,4.91.84,10.2,4.26,13.94s8,6.17,12.6,8.31c25.77,11.95,54.6,16.5,83,15.56,7.83-.26,15.64-.93,23.4-1.95s15.49-2.38,23.14-4.05,15.2-3.59,22.69-5.77c3.77-1.09,7.52-2.25,11.25-3.45,1.44-.47,2.4-.6,2.88-2.1.55-1.74,1.22-3.44,1.77-5.18A93.78,93.78,0,0,0,1050.8,796c0-.48.06-1,.08-1.44C1050.89,794.35,1050.79,793.38,1050.92,793.25Z"/></g><g id="H_hl"><path class="cls-19" d="M1239.68,368.89c5.59-10,13.9-18.19,20.84-27.32,28.47-37.47,31.24-92.57,6.66-132.7-6.35-10.37-14.36-19.87-18.75-31.22-3.18-8.23-4.32-17.13-7.5-25.36s-9.15-16.2-17.74-18.21a19,19,0,0,1,10.43,14.69l-5.44-8.94c2.62,20.31,5.35,41,13.94,59.56,6.51,14.07,16.19,26.49,22.71,40.56s9.57,31.09,2.32,44.8a56.52,56.52,0,0,0-17.29-21.62c8.4,13.13,15.71,29.7,9.06,43.8-3.81,8.08-11.66,13.8-15.05,22.06-2.16,5.26-2.33,11.12-3.92,16.58-2.16,7.41-6.85,13.8-9.87,20.9-3.84,9-4.9,18.84-5.34,28.52-.45,9.85-.23,19.76-1.55,29.56-.49,3.62-2.38,8.24-1.08,11.87.61,1.71.92.63,1.29-.66.66-2.35,1.22-4.73,1.74-7.11,2-9.54,3.14-19.25,4.8-28.85s3.84-19,8.08-27.73C1238.54,371,1239.1,369.93,1239.68,368.89Z"/><path class="cls-19" d="M798.55,229.18c-6.23,13.58-8,28.71-9.77,43.55s-3.53,30-9.74,43.55S761.39,341.93,746.76,345a52,52,0,0,0,19.16-44.36,14.74,14.74,0,0,1-15.36,10.64c15.08-19.19,14.83-46,24.06-68.63a82.59,82.59,0,0,1,14.5-23.24,89,89,0,0,1,21.2-17.61c6.95-4.15,15.63-8.91,23.92-9.15.79,0,2.09-.26,1.49.61-.42.61-2.18,1-2.85,1.34-1.07.52-2.11,1.06-3.15,1.62a74.61,74.61,0,0,0-11.7,7.91A71.64,71.64,0,0,0,800.11,226C799.56,227.05,799,228.11,798.55,229.18Z"/></g></g></g></svg>