<?xml version="1.0" encoding="utf-8"?>
<!-- Generator: Adobe Illustrator 25.2.0, SVG Export Plug-In . SVG Version: 6.00 Build 0)  -->
<svg version="1.1" id="Layer_1" xmlns="http://www.w3.org/2000/svg" xmlns:xlink="http://www.w3.org/1999/xlink" x="0px" y="0px"
	 viewBox="0 0 2000 2000" style="enable-background:new 0 0 2000 2000;" xml:space="preserve">
<style type="text/css">
	.st0{opacity:5.000000e-02;}
</style>
<g class="st0">
	<path d="M-0.1,1104.1c23.1,0.7,41.9-8.3,54.4-27.3c17-25.8,46.1-41.6,77-40.5c23.2,0.9,41.5-9.8,54.1-29.1
		c16.9-25.8,39.8-38.8,71.2-38c11.3,0.3,22.7-3.3,35.3-5.3c0.7,1.2,2.4,4,4.6,7.6c-11.4,8.1-24.3,9.7-37,9.3
		c-28.2-0.8-48.9,10.2-64.4,33.9c-15.3,23.4-38.4,34.5-66.2,34.4c-16.5-0.1-32.2,1.9-44.9,13c-7.7,6.7-14,15-20.3,23.1
		c-16.2,20.9-36.9,31.9-63.6,30.9V1104.1z"/>
	<path d="M1999.9,1876c-23-21.6-46-43.2-68.7-64.5c-24.9,54.3-51.3,111.8-78.4,170.9c17.6,2.6,34,4.8,50.3,7.5
		c19.6,3.2,39.1,6.7,58.7,10.1c-14,0-28,0-42,0c-19.2-3.4-38.4-6.8-57.6-10c-5.6-0.9-11.2-1.4-18.6-2.2
		c29.3-63.8,58.2-126.8,87.7-191.2c16,16.7,30.7,32.3,45.7,47.7c7.3,7.5,15.2,14.5,22.8,21.8
		C1999.9,1869.4,1999.9,1872.7,1999.9,1876z"/>
	<path d="M1999.9,1116.1c-28.2-0.6-49.2,11-65,34.9c-15.1,22.8-37.5,33.6-65.3,33.5c-12,0-24,2.8-37.6,4.5c-0.6-1.1-2.3-4.1-5.5-10
		c13.1-2.4,24.6-6.6,36.1-6.3c29.7,0.8,51.2-10.7,67.7-35.6c16.1-24.3,40.8-34,69.7-33C1999.9,1108.1,1999.9,1112.1,1999.9,1116.1z"
		/>
	<path d="M1999.9,640.2c-20.3-8.2-40.7-16.2-60.9-24.7c-52.4-21.9-104.8-44-157.2-66.1c-7.9-3.3-15.6-7-23.4-10.6
		c0.1-1.1,0.1-2.1,0.2-3.2c2.6,0.1,5.5-0.4,7.7,0.5c24.6,10.2,49.1,20.6,73.6,30.9c53.3,22.4,106.6,44.8,159.9,67.2
		C1999.9,636.2,1999.9,638.2,1999.9,640.2z"/>
	<path d="M1100.3,0c-13.4,9.6-26.5,19.6-40.2,28.9c-48.8,33.4-97.7,66.5-146.6,99.7c-3.6,2.4-7,5.1-10.8,7.1
		c-2.1,1.1-4.9,0.9-7.5,1.3c1.5-2.2,2.5-5.1,4.6-6.5c44.4-30.4,88.9-60.5,133.3-90.9c19.1-13.1,38.1-26.4,57.1-39.6
		C1093.6,0,1096.9,0,1100.3,0z"/>
	<path d="M-0.1,634.2C32,647.8,64.2,661.4,96.3,675c40.6,17.2,81.3,34.4,121.9,51.8c3.7,1.6,6.9,4.1,10.3,6.2c-0.4,1-0.9,2-1.3,2.9
		c-3.1-1-6.3-1.9-9.4-3.1c-70.4-29.7-140.8-59.4-211.2-89c-2.1-0.9-4.5-1.1-6.7-1.6C-0.1,639.6-0.1,636.9-0.1,634.2z"/>
	<path d="M-0.1,4c46.4,7.1,92.8,14.3,141.7,21.8c-8.4-10-15.1-17.9-21.7-25.8c2.7,0,5.3,0,8,0c9.8,10.9,19.7,21.9,31.1,34.6
		C104.5,26.2,52.2,18.1-0.1,10C-0.1,8-0.1,6-0.1,4z"/>
	<path d="M117.9,2000c-38.5-40.2-77-80.4-115.5-120.6c-0.6-0.7-1.7-0.9-2.5-1.4c0-3.3,0-6.7,0-10c40.1,41.7,80.3,83.3,120.4,125
		c2.1,2.1,3.7,4.6,5.6,7C123.2,2000,120.6,2000,117.9,2000z"/>
	<path d="M1999.9,890.2c-10.5-6.6-21-13.2-32.3-20.3c8.8-12.4,16.4-23.6,24.6-34.3c0.8-1.1,5,0.4,7.7,0.7
		C1999.9,854.2,1999.9,872.2,1999.9,890.2z"/>
	<path d="M-0.1,836.2c8.6,6.1,17.1,12.4,25.9,18.2c5.5,3.6,4.9,7.1,0.1,12.5c-6.4,7.2-11.9,15.2-16.7,23.6c-3.3,5.6-5.9,4.4-9.3,1.7
		C-0.1,873.5-0.1,854.9-0.1,836.2z"/>
	<path d="M1092.3,2000c34.8-23.9,69.6-47.8,104.4-71.6c11-7.5,21.9-15,33.1-22.2c2-1.3,5-1,7.5-1.5c0.3,0.9,0.6,1.8,0.9,2.8
		c-20.2,13.8-40.4,27.6-60.6,41.5c-24.5,16.9-48.9,34-73.3,51.1C1100.3,2000,1096.3,2000,1092.3,2000z"/>
	<path d="M342.3,2000c-4.5-11-9.1-22-13.9-33.8c-12.1,4.6-23.8,9-35.6,13.5c1.9,7.1,3.7,13.7,5.5,20.3c-2,0-4,0-6,0
		c-2.5-7.5-5-14.9-7.8-23.3c15.9-6.3,31.2-12.4,47.6-18.9c5.6,14.5,10.9,28.4,16.3,42.2C346.3,2000,344.3,2000,342.3,2000z"/>
	<path d="M-0.1,1450.1c8.1-2.4,16.2-4.8,25.7-7.6c-5.1-13.1-9.8-24.9-14.6-37.2c-4.6,2-7.8,3.4-11.1,4.8c0-2.7,0-5.3,0-8
		c4.6-1.4,9.3-2.8,14.8-4.5c6.1,15.7,12,31,18.5,47.7c-11.6,4.4-22.5,8.6-33.4,12.8C-0.1,1455.4-0.1,1452.8-0.1,1450.1z"/>
	<path d="M1394.2,0c5.4,8.9,10.9,17.9,16.7,27.5c10.1-6.6,19.3-12.8,28.8-18.8c4.7-2.9,3.2-5.7,0.5-8.7c2.7,0,5.3,0,8,0
		c1.2,2.3,2.4,4.7,4,7.6c-13.8,9.2-27.5,18.3-42.5,28.3c-8-12.3-15.7-24.1-23.4-35.9C1388.9,0,1391.6,0,1394.2,0z"/>
	<path d="M1440.2,2000c-5.8-8.8-11.6-17.6-17.9-27.2c-10.1,6.6-19.6,12.5-28.6,19.1c-1.6,1.2-1.1,5.3-1.5,8c-2.7,0-5.3,0-8,0
		c-0.7-2.5-1.4-4.9-2.2-7.8c13.5-9.1,27-18.1,42.3-28.2c7.4,12.2,14.7,24.1,21.9,36.1C1444.2,2000,1442.2,2000,1440.2,2000z"/>
	<path d="M1999.9,1410.1c-8.3,2.9-16.6,5.8-25.7,9c3.9,10,7.3,19.2,11,28.4c1.1,2.7,2.7,5.2,4.1,8c3.1-1,6-1.9,8.8-2.8
		c1.2,3.5,0.7,1.9,1.9,5.4c-4.6,1.8-9.2,3.7-15,6c-6.1-15.8-12-31-18.7-48.3c11.6-4,22.6-7.8,33.6-11.6V1410.1z"/>
	<path d="M576.3,0c-1.9,7.6-5.1,15.2,1.1,22.4c5.9,6.9,15.1,8.9,22.2,4.4c9.1-5.8,11.2-16.5,4.4-26.3c0.2-0.3,0.1-0.2,0.3-0.5
		c2.7,0,5.3,0,8,0c2.3,11.4,3.9,22.4-7.6,30.5c-8.1,5.7-16.2,6.8-25.1,1.7c-8.9-5.1-12.2-12.7-11.4-22.4c0.3-3.3,1.4-6.5,2.1-9.7
		H576.3z"/>
	<path d="M348.3,0c-0.9,2.8-1,7.4-2.7,8.1c-13.7,5.8-27.8,10.9-43.2,16.8c-2.8-8.8-5.5-16.9-8.1-24.9c2,0,4,0,6,0
		c1.9,5.5,3.9,11,5.9,16.9c10-3.9,19.1-7.1,27.9-10.9c3-1.3,5.5-4,8.2-6C344.3,0,346.3,0,348.3,0z"/>
	<path d="M1999.9,10c-21.3-3.3-42.7-6.7-64-10c21.3,0,42.7,0,64,0C1999.9,3.3,1999.9,6.7,1999.9,10z"/>
	<path d="M572.3,2000c2.2-8.7,9.3-10.8,16.7-11.3c9.2-0.7,17.1,2,21.3,11.3C597.6,2000,585,2000,572.3,2000z"/>
	<path d="M1571.5,989.6c65.4,0.3,118,53,117.9,118.3c-0.1,65.9-52.9,118.3-119.1,118.1c-65.8-0.2-118.4-53.3-118-119.2
		C1452.8,1041.7,1506.1,989.2,1571.5,989.6z"/>
	<path d="M416.4,759.7c46.5,10.1,91.6,19.8,137.8,29.8c-10,46.2-19.8,91.5-29.8,137.8c-45.9-9.9-90.9-19.6-137.8-29.8
		C396.5,851.5,406.3,806,416.4,759.7z"/>
	<path d="M176.7,1619.4c74,60.9,148,121.8,223.5,183.8c-3.7,0.7-5.8,1.3-7.8,1.4c-47.9,1.4-95.8,2.6-143.7,4.3
		c-7.5,0.3-10.6-1.8-13.1-9.4c-15.6-47.6-32.1-95-48.2-142.5c-4.1-11.9-8-23.9-12-35.8C175.7,1620.5,176.2,1620,176.7,1619.4z"/>
	<path d="M51.5,421.7c40.3-72.4,79.9-143.4,119.9-215.2c71.9,40.1,143,79.7,215.2,119.9c-39.9,71.7-79.6,142.9-119.9,215.2
		C194.8,501.5,123.5,461.8,51.5,421.7z M260.4,519.5c34.9-62.6,69.3-124.3,104.1-186.8c-62.4-34.7-124.1-69.1-186.8-103.9
		c-34.9,62.6-69.3,124.3-104,186.7C135.9,450.1,197.5,484.4,260.4,519.5z"/>
	<path d="M947.3,1337.4c-81.7,0-147.2-65.3-147.3-146.8c-0.1-81.7,65.3-146.8,147-147.1c78-0.3,147.2,62.6,146.9,147.3
		C1093.8,1275.6,1024.8,1337.7,947.3,1337.4z M812,1190.7c0.1,73.9,61,134.9,134.7,134.9c74.1,0.1,135.7-61.5,135.6-135.4
		c-0.1-73.3-61.2-135.3-135.1-134.9C870.9,1055.7,812.1,1116.4,812,1190.7z"/>
	<path d="M1503.7,432.6c36.2,60.3,71.5,119.2,108,180c-108.4,18-215.4,35.8-324.9,54.1C1359.8,587.9,1431.1,511,1503.7,432.6z
		 M1502.7,442.8c-66.6,71.8-131.9,142.3-199.4,215c101.2-16.9,199.4-33.3,298.5-49.8C1568.5,552.5,1536.1,498.4,1502.7,442.8z"/>
	<path d="M806.5,529.1c-62,0-111.8-50-111.9-112.5c-0.1-62.3,49.8-111.9,112-112.4c59.3-0.5,112.2,50.5,112.1,112.5
		C918.6,477.8,867.7,529.4,806.5,529.1z M805.8,522.7c59,0.3,106.5-46.5,106.8-105c0.3-59.2-47-107.1-105.8-107.2
		c-58.3-0.1-106.3,47.5-106.5,105.7C699.9,474.7,747.3,522.4,805.8,522.7z"/>
	<path d="M753.1,1860.9c-55.6-20.3-110.1-40.2-166-60.6c20.3-55.6,40.3-110.6,60.7-166.4c55.6,20.3,110.4,40.4,166.3,60.9
		C793.6,1750.3,773.6,1805,753.1,1860.9z M806.1,1698.4c-52.6-19.3-103.1-37.7-154.7-56.6c-18.9,51.7-37.5,102.7-56.5,154.7
		c52.1,19.1,103.1,37.8,155.1,56.9C769,1801.2,787.4,1750.2,806.1,1698.4z"/>
	<path d="M1661.4,1670.9c-70.5,23.3-140.1,46.4-210.7,69.7c-12.7-38.1-25.1-75.5-37.8-114c70.4-23.3,139.9-46.3,210.9-69.7
		C1636.4,1595.2,1648.8,1632.6,1661.4,1670.9z M1653.2,1667.2c-1.2-4.5-1.8-7.8-2.8-10.9c-9.3-28.4-18.8-56.8-27.9-85.2
		c-2.1-6.6-5.2-5.6-10.4-3.9c-45.4,15.2-90.9,30-136.3,45c-18.2,6-36.3,12.3-54.9,18.6c11.4,34.5,22.5,67.8,33.8,102
		C1521.1,1710.9,1586.6,1689.2,1653.2,1667.2z"/>
	<path d="M504.4,1044.8c23.4,16.5,45.6,32.2,68.4,48.3c-45.5,64.4-90.7,128.5-136.5,193.3c-22.8-16.1-45.3-31.9-68.5-48.3
		C413.4,1173.8,458.6,1109.8,504.4,1044.8z M376.6,1236.6c18.5,13.2,35.7,25.5,53,37.9c4.3,3.1,6.7,1.6,9.5-2.6
		c8.3-12.4,17.2-24.4,25.9-36.6c31.9-45,63.8-90,95.4-135.1c1.4-1.9,1.5-7.2,0.1-8.2c-17.9-13-36.2-25.6-54.8-38.5
		C462.6,1114.8,419.9,1175.2,376.6,1236.6z"/>
	<path d="M1041.6,1767.3c8.9-7.1,16.8-16,26.8-20.9c27.8-13.8,41.6-35.2,44.2-65.9c2.2-26.1,17.3-45.1,40.6-56.6
		c25.3-12.5,38.8-32.6,41.2-60.3c2.3-26.7,15-47,38.5-59.1c27.4-14,42-34.7,44.1-65.9c1.5-21.9,13.9-39.2,32.2-51.7
		c13-8.9,26.2-17.5,40.5-27.1c-0.6,2-0.5,5.5-2.2,6.9c-8.9,7.3-17.6,15.4-27.6,20.9c-21.8,12.1-35,29.7-37.1,54.4
		c-2.6,30.6-17,52.6-44.3,66.3c-23.8,11.9-36.2,31.4-38.5,57.7c-2.4,27.2-14.9,48.5-39.5,60.6c-28,13.8-41,35.9-43.9,66.2
		c-2.3,24-15.8,41.4-36.4,54.1c-10.9,6.7-20.4,15.5-30.7,23.1c-1.4,1-3.5,1.1-5.4,1.6C1043.3,1770.2,1042.5,1768.7,1041.6,1767.3z"
		/>
	<path d="M915.6,781.8c0.1-17.1,12.9-29.7,29.7-29.4c16.7,0.2,29.6,13.5,29.5,30.1c-0.2,16.6-13.4,29.6-30.1,29.5
		C928,811.8,915.4,798.9,915.6,781.8z"/>
	<path d="M1848.8,396.6c-13.3-5.4-20.4-14.9-25.5-26.5c-4.3-9.7-8.3-19.9-14.8-28c-13-16.4-31.3-21.3-51.8-19.9
		c-23,1.6-41.7-7.5-55.8-25.3c-4.4-5.6-7.6-12.6-9.9-19.4c-9.4-28.4-33.7-45.1-63.5-42.3c-19,1.8-35.9-4-49.2-17.3
		c-6.6-6.6-12-15.1-16-23.6c-5.9-12.3-10-25.4-21.9-33.8c-1.6-1.1-2.1-3.7-2-6.4c12.3,4.8,19,14.3,24.3,25.5
		c5.1,10.7,9.6,22.3,17.1,31.2c12.1,14.2,28.9,19.5,47.7,18c18.8-1.5,36.3,2.8,49.5,16.5c7.6,7.9,14.6,17.6,18.4,27.8
		c10.8,28.7,30.2,43.9,61.1,42.6c21.3-0.9,40,3.7,54.3,19.7c6.5,7.2,10.1,16.9,15.4,25.2c6.3,9.9,13.2,19.5,19.7,29.3
		C1847.2,392,1847.8,394.4,1848.8,396.6z"/>
	<path d="M111.7,1304.9c7.2,7.3,14.9,14.2,21.3,22.1c4.5,5.6,7.2,12.6,10.5,19.1c15.1,30.5,38.5,49.9,73.2,52.6
		c31.2,2.4,57.3,13.9,76.4,39.1c4.2,5.5,7.6,11.7,10.4,18.1c15.8,35.3,42.9,53.1,81.4,56.3c13.5,1.1,26.5,7.5,39.7,11.9
		c2.4,0.8,4.1,3.5,6.2,5.3c-0.4,0.7-0.8,1.5-1.2,2.2c-1.9-0.4-4.1-0.2-5.6-1.2c-15-8.9-31.4-11.4-48.5-13.4
		c-36.7-4.3-62.4-24.6-77.5-58.2c-14.5-32-39.6-49.8-74.1-52.6c-41.9-3.4-70.5-23.7-88.2-61.7c-5.2-11.1-14.6-20.1-22.1-30.1
		c-1.6-2.2-3.6-4-5.4-6.1C109.3,1307.2,110.5,1306,111.7,1304.9z"/>
	<path d="M1048.7,635c-7.3,1.8-14.7,5.1-22,5.2c-12.5,0.1-25.1-1.5-37.6-2.9c-32.2-3.6-59.2,6.2-79.7,31.3
		c-22.3,27.3-50.4,40.3-85.6,37.7c-6.9-0.5-13.8-2.2-20.7-2.9c-31.4-3.4-57.6,6.9-78,31.1c-10.6,12.6-22.2,23.8-38,29.8
		c-2.5,0.9-5.3,0.9-8,1.3c-0.3-0.9-0.5-1.9-0.8-2.8c4-2,8.5-3.2,11.8-6c11.5-9.8,23-19.8,33.8-30.4c22.7-22.2,49.9-34.9,81.1-28.6
		c43.4,8.8,76.2-4.1,104-37.6c20.4-24.5,48.9-32.8,80-28.8c18.3,2.3,36.1,5.7,54.2-0.7c1.3-0.4,3,0.4,4.5,0.6
		C1048.1,632.4,1048.4,633.7,1048.7,635z"/>
	<path d="M695.3,1058.9c3.4-2.4,6.5-5.3,10.3-7.1c24.6-11.7,49.4-23,74.1-34.6c78.1-36.8,156.3-73.7,234.4-110.5
		c2.2-1,4.6-1.4,6.9-2.1c0.5,0.8,1,1.7,1.5,2.5c-2.4,1.9-4.6,4.2-7.2,5.5c-36.3,17.3-72.7,34.4-109,51.6
		c-68.2,32.2-136.4,64.5-204.6,96.7c-1.2,0.5-2.5,0.7-3.7,1.1C697.1,1060.9,696.2,1059.9,695.3,1058.9z"/>
	<path d="M1220.6,797.4c32.6,0,58.8,26.3,58.6,59c-0.2,32.4-27.3,59.5-59.1,59c-32.2-0.6-57.7-26.6-57.8-59
		C1162.1,823.3,1187.7,797.4,1220.6,797.4z M1220.1,803.8c-29.2,0.1-52.3,23.5-52.1,52.9c0.2,28.6,24.5,52.6,53,52.4
		c28.4-0.2,52.8-25.1,52.3-53.3C1272.8,826.5,1249.5,803.7,1220.1,803.8z"/>
	<path d="M1869.2,1680.5c-8.6-13-16.6-25.2-25-38c12.6-8.5,24.7-16.6,37.7-25.3c8.5,12.7,16.8,25,25.4,37.8
		C1894.4,1663.5,1882.3,1671.7,1869.2,1680.5z"/>
	<path d="M1499.9,1404.2c9.1-12.8,17.6-24.6,26.6-37.2c12.3,8.8,24.3,17.3,37.2,26.4c-8.8,12.3-17.2,24-26.4,37
		C1524.8,1421.8,1512.8,1413.3,1499.9,1404.2z"/>
	<path d="M841.7,1477.6c-12.9,8.6-25,16.7-37.8,25.2c-8.7-12.9-16.8-25-25.4-37.7c12.7-8.5,24.9-16.7,37.9-25.4
		C824.9,1452.4,832.8,1464.3,841.7,1477.6z"/>
	<path d="M1091.9,345c0,15.3,0,29.4,0,44c-14.8,0-29.1,0-44,0c0-14.8,0-29.1,0-44C1062.7,345,1077,345,1091.9,345z"/>
	<path d="M1217.6,166.3c0-22,18-40,39.9-40.1c22.2-0.1,40.4,18.2,40.4,40.8c0,22.2-18,39.3-41.6,39.4
		C1235.2,206.5,1217.5,188.2,1217.6,166.3z M1258.1,132.5c-18.8-0.2-33.8,14.2-34.1,32.8c-0.4,19.6,14.7,35.4,33.8,35.5
		c19.3,0.1,34.1-14.6,34.2-34.1C1292.1,147.4,1277.5,132.7,1258.1,132.5z"/>
	<path d="M1340.8,367c0,11.1-9.1,20.5-19.9,20.7c-11.2,0.2-20.7-9.7-20.5-21.1c0.2-11.5,8.9-20,20.4-19.9
		C1332.3,346.9,1340.8,355.5,1340.8,367z"/>
	<path d="M608.4,1505.9c-10.8,0.3-20.2-8.8-20.5-19.9c-0.4-11,8.4-20.6,19.3-21.2c10.3-0.6,20.7,9.1,21.2,19.6
		C629,1495.7,619.8,1505.6,608.4,1505.9z"/>
	<path d="M695.7,206.9c-11.3-0.2-20.2-9.2-20.1-20.3c0.1-10.6,9.3-20,19.4-20c11.8,0,21.7,10.1,21.2,21.6
		C715.7,198.9,706.8,207.1,695.7,206.9z"/>
	<path d="M443.4,130.6c14.4,9.9,28,19.3,42.4,29.1c-9.7,14.4-19,28-29,42.7c-14.3-9.8-28.1-19.2-42.8-29.2
		C423.8,158.9,433.4,145.1,443.4,130.6z M455.2,193.9c7.4-10.9,14.6-21.5,22.1-32.6c-11-7.5-21.3-14.5-32.4-22.1
		c-7.7,11.2-14.8,21.7-22.1,32.5C434.2,179.5,444.5,186.6,455.2,193.9z"/>
	<path d="M644.9,1278.6c2.8-17,5.3-33,8.2-50.8c16.5,2.8,33,5.5,51.1,8.6c-2.9,16.3-5.8,32.2-9,50.5
		C678.5,1284.2,662.1,1281.5,644.9,1278.6z M651.8,1274.2c13.8,1.8,25.8,3.4,39.2,5.2c1.8-11.7,3.8-22.9,5.1-34.3
		c0.2-1.6-2.5-4.8-4.2-5.1c-11-1.9-22.1-3.2-33.8-4.7C655.9,1248.8,653.9,1261.1,651.8,1274.2z"/>
	<path d="M1809.5,187.9c2.7-17.1,5.3-33.3,8-50.6c16.7,2.7,32.9,5.3,50.1,8.1c-2.4,17.2-4.7,33.7-7.2,51
		C1843,193.4,1827.1,190.8,1809.5,187.9z M1861.9,149.7c-13.3-2.2-25.8-4.2-38.8-6.3c-2.5,14-4.6,26.3-6.9,39.3
		c13.7,2,26.2,3.9,39.9,5.9C1858,175.5,1859.8,163.5,1861.9,149.7z"/>
	<path d="M1357.5,1116.4c-9.5,3.4-17.5,6.2-27.2,9.7c-3.2-9.1-6.3-17.7-9.5-26.8c9-3.3,17.3-6.4,26.4-9.8
		C1350.6,1098.5,1353.8,1106.7,1357.5,1116.4z"/>
	<path d="M1489.2,808.8c-9.2,3.3-17.6,6.4-26.9,9.7c-3.3-9-6.4-17.3-9.8-26.7c8.7-3.1,17.2-6.1,26.6-9.5
		C1482.5,791.3,1485.7,799.4,1489.2,808.8z"/>
	<path d="M935.3,1886.5c3.4,9.3,6.2,17.3,9.6,26.6c-8.8,3.2-17.2,6.3-26.5,9.7c-3.3-8.9-6.4-17.1-10-26.5
		C917.7,1892.8,926.2,1889.8,935.3,1886.5z"/>
	<path d="M209.5,1214c-28.6,13.8-24.8,16.9-34.4-16c-0.1-0.2,2-1.2,3.2-1.6c7.4-2.5,14.9-5,22.9-7.7
		C204,1197.4,206.6,1205.5,209.5,1214z"/>
	<path d="M473.1,536.9c-0.6,13-11.5,23.6-23.9,23c-12.5-0.6-23-12.1-22.5-24.5c0.5-12.4,12.2-23.6,24.1-23.1
		C463.3,512.8,473.6,524.2,473.1,536.9z M467.4,535.9c0-8.7-8.6-17.2-17.3-17.2c-8.4,0-17.5,8.7-17.7,17c-0.2,9.2,8.3,17.4,18,17.3
		C459.8,552.8,467.4,545.2,467.4,535.9z"/>
	<path d="M1668.9,866.4c-13.4,0-23.4-9.9-23.4-23.1c0-12.6,10.8-23.3,23.6-23.4c12.8,0,23.1,10.5,23.1,23.6
		C1692.1,857.2,1682.7,866.5,1668.9,866.4z M1685.9,843.9c0.2-9.7-6.8-17.3-16.3-17.7c-9.3-0.4-17.4,7-17.8,16.3
		c-0.5,10.5,6.4,17.8,16.8,17.9C1678.8,860.5,1685.7,854,1685.9,843.9z"/>
	<path d="M1712.7,1922.4c0.3,13.1-10,23.6-23.2,23.6c-12.7,0.1-23.1-9.7-23.6-22.2c-0.5-12.8,9.9-23.9,22.7-24.4
		C1701.2,1898.9,1712.5,1909.6,1712.7,1922.4z M1689.2,1939.8c9.7,0.2,17.1-7,17.2-16.9c0.1-9.3-7.7-17.3-16.9-17.3
		c-9.4,0-17.2,7.7-17.2,17.1C1672.2,1932.5,1679.3,1939.7,1689.2,1939.8z"/>
	<path d="M999.9,210.2c-13-0.1-23.1-10.6-22.9-23.7c0.2-13.4,10.1-23,23.5-22.9c13.1,0.1,22.9,10.3,22.8,23.5
		C1023.2,200.2,1013,210.4,999.9,210.2z M1017.6,187.2c0.2-9.3-7.3-17-16.8-17.3c-10.1-0.3-18.1,7.3-18,17c0.1,9.1,8,16.8,17.3,16.9
		C1009.3,203.9,1017.4,196.2,1017.6,187.2z"/>
	<path d="M1715.4,1491.1c0.4-13,10.9-22.9,24-22.6c13.1,0.3,23.2,10.8,22.9,23.8c-0.3,12.6-11.5,23.2-24.1,22.8
		C1725.5,1514.8,1715.1,1503.8,1715.4,1491.1z M1738.7,1509.5c8.6,0.3,16.9-8.1,17.2-17.2c0.3-9.5-7-17.4-16.3-17.8
		c-9.3-0.3-17.2,6.9-17.8,16.3C1721.4,1500.2,1729.5,1509.2,1738.7,1509.5z"/>
	<path d="M1052.3,1525.8c-13.9-0.4-22.8-9.8-22.5-23.6c0.3-12.9,11-23,23.9-22.7c13.3,0.3,23.1,11.2,22.6,25.1
		C1075.8,1517.3,1065.7,1526.2,1052.3,1525.8z M1070.6,1504c0.3-9.7-7.8-18.1-17.3-18.2c-9.8-0.1-17,7-17.1,16.9
		c-0.2,9.8,6.7,17.3,16.3,17.8C1061.1,1520.8,1070.4,1512.4,1070.6,1504z"/>
	<path d="M510.3,1680.7c-0.2,7.4-6.8,13.8-14.3,13.7c-7.4-0.1-13.7-6.7-13.5-14.3c0.1-7.5,6.8-14,14.2-13.7
		C504,1666.6,510.5,1673.5,510.3,1680.7z M496,1691.7c3.7-5.4,7.6-8.4,7.3-11.2c-0.2-2.7-4.5-5.1-7-7.6c-2.5,2.5-6.6,4.8-7,7.5
		C489.1,1683.1,492.6,1686.2,496,1691.7z"/>
	<path d="M929.1,1669.4c-6.1-4.4-11-8-16.5-11.9c4-5.7,7.5-10.7,11.6-16.4c5.7,4.1,10.6,7.6,16.5,11.8
		C936.8,1658.3,933.3,1663.3,929.1,1669.4z"/>
	<path d="M1865.2,975.7c8.5,0.1,13.2,5.2,13.1,14.1c-0.1,8.6-5.1,12.7-12.9,13.4c-7.3,0.7-14-6.2-14.1-13.7
		C1851.2,981.9,1857.5,975.7,1865.2,975.7z M1876.5,989.8c-5.8-3.9-8.6-7.2-11.5-7.3c-2.4,0-6.9,4.2-6.7,6c0.4,2.9,3.6,7.1,6.2,7.7
		C1867.2,996.7,1870.5,993.3,1876.5,989.8z"/>
	<path d="M206,895.1c0.2,7.7-5.8,14.2-13.3,14.5c-7.2,0.2-14-6.1-14.4-13.4c-0.4-7.2,6-14,13.4-14.3
		C199.4,881.5,205.8,887.5,206,895.1z M192,884.3c-3.6,5.5-7.3,8.6-6.9,11.1c0.4,2.8,4.7,7.1,7,6.9c2.7-0.2,6.8-4.2,7.2-7
		C199.8,892.8,195.8,889.7,192,884.3z"/>
	<path d="M756,884.5c0.1,8.2-5.6,13.9-13.7,13.8c-8.5-0.1-12.8-5.1-13.6-13c-0.7-7.4,6-14.5,13.3-14.7
		C749.4,870.3,756,876.8,756,884.5z M741.4,895.8c4.3-5.3,8.3-8.1,8.2-10.7c-0.1-2.8-4.2-5.4-6.5-8.1c-2.7,2.3-6.9,4.3-7.5,7.1
		C735.1,886.6,738.4,890,741.4,895.8z"/>
	<path d="M1166,1051.4c-4,2.9-7.7,7.8-12,8.3c-6.6,0.8-11.1-4.1-11-11.1c0.1-6.8,5-10.8,11-9.8c4.3,0.7,8,5.1,12,7.9
		C1166,1048.3,1166,1049.8,1166,1051.4z"/>
	<path d="M1618.9,440.3c-4.1,2.8-8,7.3-12.4,7.9c-6.5,0.9-10.2-4.4-10.2-10.8c0-6.8,4.5-11.2,10.8-10.1c4.4,0.8,8.1,5.5,12.1,8.4
		C1619,437.3,1618.9,438.8,1618.9,440.3z"/>
	<path d="M1260,1233.4c-4,3-8.3,8.6-11.9,8.2c-4.1-0.5-9.7-5.7-10.8-10c-1.8-6.5,4.2-11,10.1-10.6c4.4,0.4,8.4,4.9,12.5,7.6
		C1259.9,1230.2,1259.9,1231.8,1260,1233.4z"/>
	<path d="M1761.9,711.3c2.7,4.2,7.9,8.8,7.3,12.5c-0.6,4-6.7,7.1-10.4,10.6c-3.5-3.8-9.4-7.3-9.7-11.3c-0.3-3.7,5.3-8,8.3-12
		C1758.9,711.2,1760.4,711.2,1761.9,711.3z"/>
	<path d="M508.7,1888.2c-4,3.1-8.2,8.8-12,8.5c-3.9-0.3-9.5-5.8-10.6-10c-1.7-6.2,3.1-11.4,9.7-10.4c4.5,0.7,8.5,4.7,12.7,7.3
		C508.6,1885.1,508.6,1886.7,508.7,1888.2z"/>
	<path d="M1288.4,1756.1c-2.1,9.2-6.1,14-12.4,12.4c-4.2-1.1-9.5-6.3-10.3-10.5c-1.1-6.1,4.2-11.1,10.6-10
		C1280.7,1748.8,1284.4,1753.3,1288.4,1756.1z"/>
	<path d="M1167,595.8c2.8,4,7.3,7.8,8.1,12.2c1,6.3-3.4,10.7-10.2,10.6c-6.5-0.1-11.5-4-10.5-10.4c0.7-4.4,5.2-8.2,7.9-12.3
		C1163.9,595.9,1165.5,595.8,1167,595.8z"/>
	<path d="M1751,1295.4c2.7,4.2,7,8.1,7.6,12.5c0.9,6.3-3.7,10.6-10.4,10.3c-6.4-0.3-11.5-4.2-10.3-10.6c0.8-4.4,5.5-8.2,8.5-12.2
		C1747.9,1295.4,1749.4,1295.4,1751,1295.4z"/>
	<path d="M546.2,316.1c-1.9,9.3-6,12.9-12.3,12.7c-6.2-0.2-10.7-4.1-10.4-10.8c0.2-6.5,4.6-11.1,10.8-10
		C538.6,308.8,542.3,313.3,546.2,316.1z"/>
	<path d="M1542.3,1846.5c-4.1,2.8-7.9,7.2-12.3,7.9c-6.8,1.1-11-4.6-9.7-10.6c0.9-3.9,5.8-8.9,9.8-9.8
		C1536.3,1832.6,1540.5,1837.1,1542.3,1846.5z"/>
</g>
</svg>
