<svg xmlns="http://www.w3.org/2000/svg" viewBox="0 0 508.2 467.57"><defs><style>.cls-1{fill:#fff;}</style></defs><g id="Layer_2" data-name="Layer 2"><g id="Layer_1-2" data-name="Layer 1"><path class="cls-1" d="M254.24,0a10.15,10.15,0,0,0-7.68,3.26L173.21,82.41,72.32,106.15,24.77,82.39a10.16,10.16,0,0,0-13.63,4.54C10.71,87.82,0,104.1,0,139.76c0,33,18.75,51.18,29.14,60l7.47,5.6a10.1,10.1,0,0,1,2.62,3l.25.1-.21,0a10.15,10.15,0,0,1-14.16,13.71,79.28,79.28,0,0,1-8.69-6.45l-.08-.08a10,10,0,0,0-10.7-1,10,10,0,0,0-5.62,9c0,7.46.1,15,.28,18.42C2.37,276.84,13.42,327,68.13,340l.6.18,18.42,4.35L81.65,363a10.08,10.08,0,0,0,.93,8A10.22,10.22,0,0,0,89,375.79L181.46,398l65.3,66.52a10.13,10.13,0,0,0,14.51,0L326.58,398,419,375.79A10.17,10.17,0,0,0,426.39,363l-5.52-18.46,18.43-4.33c.25-.06.5-.14.75-.22l0,0c54.71-13,65.76-63.2,67.83-98.05.18-3.45.24-11,.28-18.42a10.19,10.19,0,0,0-16.32-8l-.08.08a79.28,79.28,0,0,1-8.69,6.45,10.15,10.15,0,0,1-14.16-13.71l-.21,0,.25-.1a10.24,10.24,0,0,1,2.62-3l7.47-5.6c10.39-8.77,29.14-27,29.14-60,0-35.66-10.71-51.94-11.14-52.83a10.16,10.16,0,0,0-13.63-4.54l-47.61,23.8-101-23.78L261.47,3.26A10.2,10.2,0,0,0,254.24,0ZM254,25.11l68,73.38a10.12,10.12,0,0,0,5.14,3l97,22.83-29,96.4a10.19,10.19,0,0,0,0,5.84l29,96.4-97,22.83a10.14,10.14,0,0,0-5.14,3l-68,73.37-68-73.37a10.15,10.15,0,0,0-5.12-3l-97-22.83,29-96.4a10.19,10.19,0,0,0,0-5.84l-29-96.4,97-22.83a10.13,10.13,0,0,0,5.12-3Zm0,76.53a122.13,122.13,0,0,0-122,122v0c0,.18,0,.36,0,.54.32,67,54.9,121.39,122,121.39,63.15,0,115.25-48.28,121.35-109.86a112.4,112.4,0,0,0,.62-12.11A122.13,122.13,0,0,0,254,101.64ZM254,122a101.49,101.49,0,0,1,95.81,135.39c-6,14.28-17.41,26.95-39,37.08a10.17,10.17,0,0,0-5.84,8.48l-.08,1.27c0,.24,0,.49,0,.73a10,10,0,0,1-10.16,10.17H213.35A10,10,0,0,1,203.22,305l0-.61a10.17,10.17,0,0,0-5.84-9.95c-22.63-10.61-34.22-24-40-39.11a101.92,101.92,0,0,1-5.1-31.72v0A101.49,101.49,0,0,1,254,122Zm-30.59,50.72a10.17,10.17,0,0,0-7.09,17.45l10.17,10.17a10.16,10.16,0,0,0,14.66-14.08l-.29-.3L230.7,175.77A10.18,10.18,0,0,0,223.41,172.69Zm60.88,0a10.13,10.13,0,0,0-7,3.08l-10.17,10.16a10.17,10.17,0,0,0,14.08,14.67l.3-.29,10.16-10.17a10.17,10.17,0,0,0-7.39-17.45Zm-81.11,30.59a30.5,30.5,0,1,0,30.49,30.5A30.49,30.49,0,0,0,203.18,203.28Zm101.64,0a30.5,30.5,0,1,0,30.49,30.5A30.49,30.49,0,0,0,304.82,203.28ZM254,243.94l-20.33,30.49h40.66Z"/></g></g></svg>